<svg xmlns="http://www.w3.org/2000/svg" viewBox="90 209 386.5 402.5">
  <path fill="#000000" d="M329.42,399.81c-5.75,2.69-11.36,5.33-16.98,7.97c-0.29,0.13-0.58,0.27-0.85,0.43c-1.04,0.64-1.33,1.29-0.77,2.37 c2.68,5.2,3.04,10.93,3.82,16.55c0.69,5.03,0.77,10.1,0.18,15.15c-0.53,4.55-1.73,8.95-3.09,13.3c-1.93,6.17-4.24,12.19-7.21,17.94 c-3.66,7.1-8.01,13.74-12.93,20.02c-4.68,5.98-9.67,11.7-15.06,17.06c-5.07,5.05-10.16,10.07-15.26,15.08 c-6.94,6.83-13.06,14.28-17.45,23.03c-2.15,4.28-3.72,8.78-3.81,13.61c-0.15,7.62,2.8,13.79,9.6,17.49 c4.39,2.39,9.25,2.95,14.17,1.32c2.28-0.75,4.61-1.4,6.87-2.22c1.23-0.45,2.42-1.08,3.52-1.79c1.59-1.04,3.06-2.25,4.61-3.34 c1.58-1.11,2.77-2.57,3.95-4.06c0.44-0.55,0.77-1.32,1.8-1.23c0.2,0.98-0.38,1.57-0.9,2.18c-2.65,3.15-5.31,6.27-7.93,9.45 c-1.53,1.85-2.92,3.81-4.46,5.66c-5.65,6.8-12.85,11.28-21.41,13.29c-9.29,2.18-17.65-0.11-24.55-6.72 c-4.61-4.42-6.63-10.1-6.39-16.5c0.22-5.84,1.69-11.37,4.23-16.62c2.43-5.02,5.01-9.96,8.68-14.22c3.3-3.84,6.63-7.65,10.07-11.36 c7.6-8.23,15.29-16.37,21.98-25.38c5.14-6.93,9.68-14.23,13.4-22c3.67-7.67,6.42-15.68,8.17-24.02c1.63-7.77,2.68-15.61,2.3-23.56 c-0.21-4.35-0.95-8.67-1.46-13c-0.09-0.75-0.18-1.52-0.39-2.24c-0.41-1.38-1.05-1.78-2.41-1.19c-2.38,1.02-4.75,2.09-7.01,3.36 c-6.45,3.64-12.89,7.3-19.24,11.1c-11.3,6.76-22.47,13.74-33.1,21.53c-6.02,4.42-11.83,9.11-17.67,13.76 c-4.63,3.68-8.63,8.01-12.26,12.66c-3.61,4.63-7.13,9.34-10.46,14.17c-2.21,3.22-4,6.73-6.01,10.08c-1.01,1.68-2.08,3.31-3.2,4.92 c-0.28,0.41-0.91,0.91-1.26,0.84c-0.4-0.08-0.86-0.73-0.96-1.21c-0.85-4.15-1.72-8.31-2.41-12.49c-0.68-4.13-0.98-8.3-0.69-12.49 c0.52-7.67,3.16-14.5,7.96-20.54c6.01-7.56,13.24-13.73,21.2-19.13c3.4-2.31,6.55-4.98,9.94-7.31c2.81-1.93,5.77-3.65,8.71-5.39 c5.29-3.11,10.61-6.16,15.92-9.25c0.31-0.18,0.58-0.42,0.71-0.94c-1.57,0.7-3.13,1.39-4.7,2.09c-0.06-0.1-0.12-0.19-0.18-0.29 c0.3-0.24,0.56-0.55,0.89-0.71c6.06-3.02,12.07-6.14,18.21-8.99c6.37-2.96,12.87-5.64,19.31-8.45c3.19-1.39,6.38-2.77,9.55-4.21 c1.76-0.8,1.8-1.12,0.76-2.66c-6.4-9.49-14.63-17.04-24.33-23.08c-7.94-4.94-16.52-8.25-25.62-10.16 c-6.86-1.44-13.83-1.49-20.8-0.84c-7.6,0.71-14.96,2.49-22.24,4.71c-7.51,2.29-15.03,4.55-22.59,6.66 c-5.51,1.54-11.19,2.16-16.9,2.26c-5.01,0.09-9.99-0.08-14.92-1.21c-6.26-1.43-11.96-4.03-17.19-7.74 c-2.83-2.01-5.87-3.73-8.36-6.2c-0.36-0.36-0.77-0.65-1.14-1c-1.6-1.52-1.4-2.63,0.66-3.29c4.94-1.59,9.89-3.16,14.86-4.66 c0.79-0.24,1.75-0.2,2.57-0.03c1.67,0.33,3.31,1.19,4.97,1.19c2.94-0.01,4.6,1.86,6.51,3.54c3.18,2.8,6.31,5.67,10.24,7.73 c0.55-0.29,1.29-0.48,1.72-0.96c0.76-0.84,1.61-0.83,2.58-0.72c9.25,1.01,18.29,0.11,27.22-2.59c7.99-2.42,16.04-4.69,24.13-6.76 c6.38-1.64,12.92-2.45,19.5-2.94c6.72-0.5,13.42-0.46,20.12,0.09c11.49,0.95,22.7,3.13,33.31,7.81c5.04,2.23,9.9,4.83,14.52,7.85 c1.38,0.9,2.2,2.05,2.08,3.8c-0.03,0.46,0.36,1.06,0.73,1.41c1.77,1.72,3.75,3.24,5.37,5.09c2.42,2.75,4.69,5.64,6.83,8.62 c0.97,1.35,2.04,2.07,3.62,1.87c1.37-0.17,2.77-0.4,4.04-0.89c4.91-1.86,9.78-3.83,14.66-5.77c3.59-1.42,7.16-2.87,10.75-4.3 c1.73-0.69,1.83-0.77,1.63-2.66c-0.83-8.06-1.66-16.12-2.56-24.17c-0.32-2.82-0.93-5.61-1.27-8.43c-0.43-3.58-0.78-7.17-1.07-10.77 c-0.73-8.96-1.45-17.92-2.09-26.89c-0.69-9.79-1.29-19.58-1.93-29.37c-0.15-2.27-0.31-4.55-0.47-6.82c-0.04-0.5-0.08-1.02-0.2-1.51 c-0.35-1.49-1.06-1.86-2.48-1.28c-1.81,0.75-3.62,1.51-5.41,2.32c-2.99,1.36-5.96,2.78-8.95,4.16c-0.31,0.14-0.69,0.15-1.01,0.22 c-0.55-0.68-0.17-1.19,0.12-1.64c1.64-2.55,3.16-5.19,5-7.59c3.96-5.17,8.15-10.15,12.12-15.31c3.56-4.62,7.24-9.11,11.38-13.22 c0.22-0.22,0.41-0.47,0.68-0.8c-0.23-0.44-0.54-0.84-0.67-1.3c-0.11-0.37-0.02-0.8-0.02-1.49c1.12,0.66,1.78,0.26,2.49-0.36 c4.13-3.55,8.29-7.05,12.43-10.58c1.16-0.98,2.27-2.02,3.47-2.96c0.4-0.32,1.08-0.65,1.48-0.52c0.78,0.26,0.46,1.05,0.37,1.65 c-0.96,5.87-2.09,11.72-2.86,17.61c-0.69,5.27-1.16,10.57-1.41,15.88c-0.27,5.68-0.34,11.39-0.23,17.08 c0.19,9.55,0.58,19.1,0.91,28.65c0.29,8.35,0.6,16.7,0.96,25.04c0.25,5.69,0.55,11.38,0.91,17.06c0.21,3.28,0.57,6.55,0.92,9.82 c0.44,4.09,0.98,8.16,1.38,12.25c0.12,1.27,0.61,1.95,1.86,2.24c1.79,0.42,3.57,0.89,5.31,1.47c1.8,0.6,3.32,0.32,4.77-0.89 c2.84-2.36,6.14-3.73,9.79-4.28c0.25-0.04,0.5-0.12,0.75-0.1c4.16,0.28,7.98-1.18,11.84-2.37c10.35-3.19,20.69-6.38,31.03-9.59 c0.72-0.22,1.45-0.49,2.1-0.86c6.76-3.84,14.08-6,21.71-7.13c5.17-0.77,10.1-2.33,15.04-3.92c0.66-0.21,1.33-0.44,2.02-0.52 c0.83-0.09,1.16,0.38,0.96,1.19c-0.03,0.12-0.09,0.24-0.15,0.35c-2.85,5.24-3.89,11.09-5.42,16.75c-3.3,12.16-6,24.47-8.28,36.85 c-3.28,17.76-7.84,35.21-12.75,52.57c-3.2,11.32-6.91,22.51-10.36,33.76c-4.07,13.25-8.3,26.45-12.1,39.78 c-2.9,10.16-5.26,20.47-7.83,30.72c-1.1,4.42-2.11,8.87-3.16,13.3c-0.06,0.25-0.11,0.5-0.21,0.73c-0.44,1.05-0.91,1.2-1.88,0.54 c-2.73-1.85-5.26-3.95-7.48-6.4c-3.26-3.59-5.84-7.65-8.05-11.93c-3.31-6.41-6.64-12.81-9.65-19.36c-3.03-6.6-5.7-13.38-8.49-20.09 c-4.97-11.92-9.03-24.18-12.99-36.46c-2.06-6.38-3.7-12.89-5.35-19.39c-2.1-8.28-4.22-16.56-5.98-24.92 c-2.01-9.54-3.62-19.15-5.41-28.73c-0.02-0.12-0.04-0.25-0.07-0.37c-0.5-2.47-1.64-3.18-4.03-2.29c-1.48,0.55-2.87,1.34-4.29,2.02 C330.7,399.21,330.13,399.48,329.42,399.81z M406.31,515.61c1.12-4.16,2.25-8.31,3.36-12.47c2.73-10.28,5.73-20.49,8.08-30.85 c3.31-14.56,6.13-29.24,9.14-43.86c0.88-4.27,1.89-8.52,2.56-12.83c1.84-11.82,3.52-23.66,5.27-35.49c1.06-7.2,2.14-14.4,3.2-21.6 c0.19-1.27-0.31-1.79-1.56-1.53c-0.92,0.2-1.82,0.55-2.71,0.86c-6.87,2.41-13.75,4.77-20.59,7.25c-5.88,2.14-11.74,4.35-17.56,6.67 c-6.58,2.62-13.1,5.39-19.64,8.12c-4.26,1.78-8.52,3.56-12.75,5.41c-1.67,0.73-2.15,1.74-1.89,3.5c0.6,3.94,1.22,7.87,1.86,11.81 c1.47,8.99,2.95,17.97,4.43,26.95c1.4,8.49,3.24,16.9,5.46,25.21c3.56,13.32,7.6,26.5,12.14,39.52c2,5.73,4.07,11.43,6.27,17.08 c2.72,7.01,5.6,13.96,8.43,20.92c0.29,0.71,0.28,1.86,1.34,1.84c1.06-0.02,1.03-1.15,1.23-1.9 C403.7,525.45,404.96,520.67,406.31,515.61z"/>
</svg>